<svg width="32" height="33" viewBox="0 0 32 33" fill="none" xmlns="http://www.w3.org/2000/svg">
<path d="M27 0.5H5C2.23858 0.5 0 2.73858 0 5.5V27.5C0 30.2614 2.23858 32.5 5 32.5H27C29.7614 32.5 32 30.2614 32 27.5V5.5C32 2.73858 29.7614 0.5 27 0.5Z" fill="#1877F2"/>
<path d="M24 16.5C24 12.1 20.4 8.5 16 8.5C11.6 8.5 8 12.1 8 16.5C8 20.5 10.9 23.8 14.7 24.4V18.8H12.7V16.5H14.7V14.7C14.7 12.7 15.9 11.6 17.7 11.6C18.6 11.6 19.5 11.8 19.5 11.8V13.8H18.5C17.5 13.8 17.2 14.4 17.2 15V16.5H19.4L19 18.8H17.1V24.5C21.1 23.9 24 20.5 24 16.5Z" fill="white"/>
</svg>
