<svg width="66" height="66" viewBox="0 0 66 66" fill="none" xmlns="http://www.w3.org/2000/svg">
<path d="M4.55835 49.4097H29.8793H34.8104H60.4945C60.7915 49.4097 61.0323 49.1689 61.0323 48.8719V13.2943C61.0323 12.9973 60.7915 12.7565 60.4945 12.7565H56.8494C56.5524 12.7565 56.3116 12.5157 56.3116 12.2186V10.362C56.3116 10.065 56.0708 9.82422 55.7737 9.82422H37.4287C33.3616 9.82422 32.3448 13.0008 32.3448 14.5891C32.3448 10.7772 28.9556 9.82422 27.2609 9.82422H9.27908C8.98203 9.82422 8.74123 10.065 8.74123 10.362V12.2186C8.74123 12.5157 8.50043 12.7565 8.20338 12.7565H4.55835C4.26131 12.7565 4.02051 12.9973 4.02051 13.2943V48.8719C4.02051 49.1689 4.26131 49.4097 4.55835 49.4097Z" fill="#E43B25"/>
<path d="M33.9004 23.8086C28.6861 23.8086 24.459 28.0508 24.459 33.2839C24.459 37.749 27.5364 41.4928 31.6789 42.4955L31.1235 54.1854C31.031 55.3001 31.4567 57.5296 33.9004 57.5296C36.344 57.5296 36.6773 55.3001 36.6773 54.1854L36.1219 42.4955C40.2643 41.4928 43.3418 37.749 43.3418 33.2839C43.3418 28.0508 39.1147 23.8086 33.9004 23.8086Z" fill="white"/>
<path d="M31.4925 47.7964H5.63379V11.1432H10.3545M10.3545 11.1432V8.21094H28.8742C30.5689 8.21094 33.9581 9.16393 33.9581 12.9758M10.3545 11.1432V41.932H29.7507M33.9581 12.9758C33.9581 11.3876 34.9749 8.21094 39.0419 8.21094H57.9248V11.1432M33.9581 12.9758V18.4738M57.9248 11.1432V41.932H38.1656M57.9248 11.1432H62.6456V47.7964H36.4237M42.6733 14.442H52.1147M42.6733 18.4738H52.1147M47.394 22.5057H52.1147M15.8015 14.442H25.2429M15.8015 18.4738H25.2429M15.8015 22.5057H20.5222M31.7366 42.6587C32.449 42.8311 33.1929 42.9225 33.9581 42.9225C34.7233 42.9225 35.4672 42.8311 36.1797 42.6587M31.7366 42.6587C27.5941 41.6561 24.5167 37.9123 24.5167 33.4472C24.5167 28.2141 28.7438 23.9719 33.9581 23.9719C39.1725 23.9719 43.3996 28.2141 43.3996 33.4472C43.3996 37.9123 40.322 41.6561 36.1797 42.6587M31.7366 42.6587L31.1813 54.3486C31.0887 55.4634 31.5144 57.6929 33.9581 57.6929C36.4017 57.6929 36.735 55.4634 36.735 54.3486L36.1797 42.6587M34.2358 27.3161C35.9945 27.409 39.6785 28.7095 40.345 33.1685" stroke="#222322" stroke-width="1.50597" stroke-linecap="round" stroke-linejoin="round"/>
</svg>
