<svg width="25" height="25" viewBox="0 0 25 25" fill="none" xmlns="http://www.w3.org/2000/svg">
<path d="M22.2625 17.4201V20.4201C22.2636 20.6986 22.2066 20.9743 22.095 21.2294C21.9834 21.4846 21.8198 21.7137 21.6146 21.902C21.4094 22.0902 21.1671 22.2336 20.9033 22.3228C20.6394 22.412 20.3599 22.4452 20.0825 22.4201C17.0053 22.0857 14.0495 21.0342 11.4525 19.3501C9.03633 17.8148 6.98784 15.7663 5.45251 13.3501C3.76248 10.7413 2.71075 7.77109 2.38251 4.6801C2.35752 4.40356 2.39038 4.12486 2.47901 3.86172C2.56763 3.59859 2.71008 3.35679 2.89727 3.15172C3.08447 2.94665 3.31231 2.78281 3.5663 2.67062C3.82028 2.55843 4.09485 2.50036 4.37251 2.5001H7.37251C7.85781 2.49532 8.3283 2.66718 8.69627 2.98363C9.06424 3.30008 9.30458 3.73954 9.37251 4.2201C9.49913 5.18016 9.73396 6.12282 10.0725 7.0301C10.207 7.38802 10.2362 7.77701 10.1564 8.15098C10.0767 8.52494 9.89137 8.86821 9.62251 9.1401L8.35251 10.4101C9.77606 12.9136 11.849 14.9865 14.3525 16.4101L15.6225 15.1401C15.8944 14.8712 16.2377 14.6859 16.6116 14.6062C16.9856 14.5264 17.3746 14.5556 17.7325 14.6901C18.6398 15.0286 19.5824 15.2635 20.5425 15.3901C21.0283 15.4586 21.4719 15.7033 21.789 16.0776C22.1062 16.4519 22.2747 16.9297 22.2625 17.4201Z" stroke="#E6352A" stroke-width="2" stroke-linecap="round" stroke-linejoin="round"/>
</svg>
