<svg width="66" height="66" viewBox="0 0 66 66" fill="none" xmlns="http://www.w3.org/2000/svg">
<path d="M30.6426 57.9343V7.69023C30.6426 7.54418 30.7611 7.42578 30.907 7.42578H33.816C33.962 7.42578 34.0804 7.54418 34.0804 7.69023V57.9343C34.0804 58.0804 33.962 58.1987 33.816 58.1987H30.907C30.7611 58.1987 30.6426 58.0804 30.6426 57.9343Z" fill="#F5F5F5"/>
<path d="M44.2183 31.9711C41.9645 30.4344 39.5631 29.6152 33.8258 28.5182C33.8253 28.5181 33.8242 28.5177 33.8232 28.5165C33.8231 28.5164 33.8233 28.5166 33.8232 28.5165L33.823 20.6713C34.8584 20.8684 35.6438 21.2707 36.2181 21.9022C36.7964 22.5382 37.1825 23.4308 37.3713 24.645C37.4163 24.9343 37.6889 25.143 37.9877 25.092L47.8506 23.4081C48.1485 23.3572 48.345 23.0657 48.2753 22.7689C47.2705 18.4917 45.166 15.6112 41.8556 13.8796C39.4442 12.6237 37.0322 11.9567 33.8255 11.7339C31.7418 11.5892 31.2389 11.6122 30.4569 11.6481C30.274 11.6564 30.0758 11.6655 29.8384 11.6734C27.4716 11.7511 25.2892 12.2118 23.1557 13.0551C18.2852 14.921 15.1174 19.383 15.1174 24.5731C15.1174 29.241 17.5077 33.1406 21.6083 35.2171C23.6838 36.2802 25.9999 36.9902 29.84 37.7862C29.8404 37.7862 29.8409 37.7864 29.8415 37.7872C29.8415 37.7871 29.8416 37.7872 29.8415 37.7872L29.8416 46.8621C28.4856 46.6476 27.6051 46.2147 26.8478 45.4139C26.0265 44.5003 25.6306 43.5447 25.4224 41.6369C25.3894 41.3342 25.1072 41.1145 24.8008 41.1695L14.8744 42.9524C14.5944 43.0027 14.4046 43.2659 14.4448 43.5473C14.6838 45.2183 14.8845 46.1064 15.1804 47.0437L15.1826 47.0503L15.1851 47.0569C16.1164 49.5407 17.6217 51.5168 19.7537 52.9213C22.2972 54.6503 25.4266 55.5696 29.8392 55.8926C30.3081 55.9268 30.5946 55.9585 30.8089 55.9847C30.8547 55.9902 30.8979 55.9957 30.9394 56.0009C31.09 56.0198 31.2186 56.036 31.369 56.0466C31.7529 56.0736 32.2855 56.0654 33.8275 56.0027C38.6432 55.807 42.5523 54.4065 45.2614 52.0047C47.9753 49.5988 49.4611 46.2088 49.4611 42.0898C49.4611 37.74 47.6938 34.3573 44.2183 31.9711ZM27.6019 26.9866L27.5959 26.9831C26.5081 26.3683 25.9532 25.4391 25.9532 24.2178C25.9532 23.1768 26.2974 22.3474 26.9381 21.7429C27.5824 21.1351 28.5516 20.7314 29.8416 20.5968V27.7849C28.5205 27.4357 28.0379 27.2482 27.6019 26.9866ZM29.8416 27.7849C29.8419 27.7849 29.8425 27.7854 29.8426 27.7853C29.8431 27.7853 29.8431 27.7855 29.8426 27.7853C29.8425 27.7854 29.8419 27.7849 29.8416 27.7849C29.8416 27.7853 29.8416 27.7864 29.8416 27.7864C29.8415 27.7867 29.8416 27.7863 29.8416 27.7864C29.8416 27.7864 29.8416 27.7853 29.8416 27.7849ZM33.823 38.4114C35.3333 38.7658 35.8507 38.9621 36.5863 39.3298C37.7546 39.938 38.3714 41.0068 38.3714 42.5468C38.3714 43.9017 37.992 44.9078 37.2596 45.6159C36.5227 46.3285 35.3929 46.774 33.823 46.9296V38.4114Z" fill="#E43B25"/>
<path d="M33.8232 28.5165C33.8242 28.5177 33.8253 28.5181 33.8258 28.5182C39.5631 29.6152 41.9645 30.4344 44.2183 31.9711C47.6938 34.3573 49.4611 37.74 49.4611 42.0898C49.4611 46.2088 47.9753 49.5988 45.2614 52.0047C42.5523 54.4065 38.6432 55.807 33.8275 56.0027C32.2855 56.0654 31.7529 56.0736 31.369 56.0466C31.2186 56.036 31.09 56.0198 30.9394 56.0009C30.8979 55.9957 30.8547 55.9902 30.8089 55.9847C30.5946 55.9585 30.3081 55.9268 29.8392 55.8926C25.4266 55.5696 22.2972 54.6503 19.7537 52.9213C17.6217 51.5168 16.1164 49.5407 15.1851 47.0569L15.1826 47.0503L15.1804 47.0437C14.8845 46.1064 14.6838 45.2183 14.4448 43.5473C14.4046 43.2659 14.5944 43.0027 14.8744 42.9524L24.8008 41.1695C25.1072 41.1145 25.3894 41.3342 25.4224 41.6369C25.6306 43.5447 26.0265 44.5003 26.8478 45.4139C27.6051 46.2147 28.4856 46.6476 29.8416 46.8621L29.8415 37.7872M33.8232 28.5165C33.8231 28.5164 33.8233 28.5166 33.8232 28.5165ZM33.8232 28.5165L33.823 20.6713C34.8584 20.8684 35.6438 21.2707 36.2181 21.9022C36.7964 22.5382 37.1825 23.4308 37.3713 24.645C37.4163 24.9343 37.6889 25.143 37.9877 25.092L47.8506 23.4081C48.1485 23.3572 48.345 23.0657 48.2753 22.7689C47.2705 18.4917 45.166 15.6112 41.8556 13.8796C39.4442 12.6237 37.0322 11.9567 33.8255 11.7339C31.7418 11.5892 31.2389 11.6122 30.4569 11.6481C30.274 11.6564 30.0758 11.6655 29.8384 11.6734C27.4716 11.7511 25.2892 12.2118 23.1557 13.0551C18.2852 14.921 15.1174 19.383 15.1174 24.5731C15.1174 29.241 17.5077 33.1406 21.6083 35.2171C23.6838 36.2802 25.9999 36.9902 29.84 37.7862C29.8404 37.7862 29.8409 37.7864 29.8415 37.7872M29.8415 37.7872C29.8416 37.7872 29.8415 37.7871 29.8415 37.7872ZM29.8416 27.7849V20.5968C28.5516 20.7314 27.5824 21.1351 26.9381 21.7429C26.2974 22.3474 25.9532 23.1768 25.9532 24.2178C25.9532 25.4391 26.5081 26.3683 27.5959 26.9831L27.6019 26.9866C28.0379 27.2482 28.5205 27.4357 29.8416 27.7849ZM29.8416 27.7849C29.8419 27.7849 29.8425 27.7854 29.8426 27.7853M29.8416 27.7849C29.8416 27.7853 29.8416 27.7864 29.8416 27.7864M29.8426 27.7853C29.8431 27.7853 29.8431 27.7855 29.8426 27.7853ZM29.8416 27.7864C29.8416 27.7863 29.8415 27.7867 29.8416 27.7864ZM33.823 38.4114C35.3333 38.7658 35.8507 38.9621 36.5863 39.3298C37.7546 39.938 38.3714 41.0068 38.3714 42.5468C38.3714 43.9017 37.992 44.9078 37.2596 45.6159C36.5227 46.3285 35.3929 46.774 33.823 46.9296V38.4114Z" stroke="#E43B25" stroke-width="0.528885"/>
<path fill-rule="evenodd" clip-rule="evenodd" d="M45.1923 29.8675L45.1951 29.8695C48.8917 32.4074 50.7823 36.0378 50.7823 40.6423C50.7823 44.9659 49.2153 48.58 46.3156 51.1508C43.5826 53.5736 39.7516 54.9955 35.1442 55.3069V57.9453C35.1442 58.6755 34.5522 59.2675 33.822 59.2675H30.8983C30.168 59.2675 29.5761 58.6755 29.5761 57.9453V55.1761C25.4576 54.8007 22.3891 53.8642 19.8401 52.1329C17.5575 50.6276 15.9539 48.5116 14.97 45.8879L14.9602 45.8617L14.9518 45.835C14.6388 44.8438 14.4302 43.9105 14.1873 42.2121C14.0866 41.5082 14.5613 40.8499 15.262 40.724L25.1883 38.9411C25.9574 38.803 26.657 39.354 26.7389 40.1032C26.9354 41.9032 27.2892 42.681 27.9589 43.4284C28.3976 43.8903 28.8855 44.2096 29.5761 44.4242V36.9826C26.0769 36.2324 23.8247 35.5255 21.7762 34.4765C17.4066 32.2632 14.852 28.0884 14.852 23.1255C14.852 17.5965 18.2316 12.8484 23.3958 10.8682C25.3809 10.084 27.4096 9.618 29.5761 9.47119V7.95502C29.5761 7.22479 30.168 6.63281 30.8983 6.63281H33.822C34.5522 6.63281 35.1442 7.22479 35.1442 7.95502V9.55495C38.0918 9.83251 40.421 10.5154 42.7495 11.7282L42.7511 11.7291C46.2985 13.5845 48.527 16.6769 49.5754 21.1399C49.7506 21.8858 49.2567 22.6154 48.5119 22.7425L38.649 24.4264C37.8987 24.5546 37.2259 24.0309 37.1152 23.3193C36.942 22.2051 36.6013 21.4749 36.159 20.9884C35.8962 20.6995 35.5662 20.4619 35.1442 20.2812V26.4156C40.4502 27.4569 42.8868 28.2957 45.1923 29.8675ZM22.2563 33.534C24.3005 34.5811 26.5896 35.2854 30.4215 36.0797C30.5444 36.1052 30.6339 36.2136 30.6339 36.3392V45.4188C30.6339 45.5783 30.4936 45.7018 30.336 45.677C28.9295 45.4556 27.9887 45.0005 27.1813 44.1456C26.3093 43.1767 25.8995 42.1615 25.6874 40.218C25.6705 40.0642 25.5276 39.9548 25.3754 39.9822L15.449 41.7651C15.3093 41.7902 15.2143 41.9218 15.2344 42.0623C15.4721 43.724 15.6702 44.5972 15.9605 45.5165C16.8743 47.9536 18.3468 49.8829 20.4285 51.2538C22.9205 52.9484 25.9996 53.8602 30.3864 54.1813C30.5251 54.1914 30.6339 54.3067 30.6339 54.4459V57.9453C30.6339 58.0913 30.7522 58.2097 30.8983 58.2097H33.822C33.9681 58.2097 34.0864 58.0913 34.0864 57.9453V54.5565C34.0864 54.4137 34.202 54.2967 34.3447 54.2909C43.8894 53.903 49.7246 48.7439 49.7246 40.6423C49.7246 36.3774 47.9982 33.077 44.5964 30.7415C42.3901 29.2372 40.0352 28.4262 34.3039 27.3304C34.1791 27.3065 34.0864 27.197 34.0864 27.07V19.2172C34.0864 19.056 34.2302 18.932 34.3886 18.9618C36.5553 19.3702 37.7724 20.6616 38.1605 23.1568C38.1836 23.3055 38.3228 23.4091 38.471 23.3838L48.3339 21.6999C48.4829 21.6745 48.5803 21.5288 48.5457 21.3818C47.5554 17.1664 45.4923 14.3566 42.2609 12.6664C39.8853 11.4291 37.5098 10.7707 34.3349 10.5501C34.1956 10.5405 34.0864 10.4249 34.0864 10.2852V7.95502C34.0864 7.80898 33.9681 7.69058 33.822 7.69058H30.8983C30.7522 7.69058 30.6339 7.80898 30.6339 7.95502V10.2241C30.6339 10.368 30.5187 10.4853 30.3749 10.49C28.0381 10.5669 25.8852 11.0215 23.7795 11.854C19.0068 13.6818 15.9097 18.0483 15.9097 23.1255C15.9097 27.6951 18.2452 31.5032 22.2563 33.534ZM28.5261 24.8517L28.5379 24.8588C28.7656 24.9954 29.0193 25.1156 29.5761 25.2888V20.0881C28.8708 20.2632 28.3599 20.5426 28.0103 20.8724C27.5488 21.3079 27.2743 21.9181 27.2743 22.7701C27.2743 23.6951 27.6662 24.3657 28.5142 24.8449L28.5261 24.8517ZM27.9937 25.7657C26.8258 25.1057 26.2166 24.0903 26.2166 22.7701C26.2166 20.5624 27.6862 19.1605 30.3507 18.8853C30.5034 18.8695 30.6339 18.9912 30.6339 19.1447V26.3383C30.6339 26.5112 30.4701 26.6375 30.3029 26.5933C28.9781 26.2431 28.464 26.048 27.9937 25.7657ZM35.1442 37.9804V44.5644C36.126 44.3666 36.7954 44.024 37.236 43.598C37.7745 43.0773 38.106 42.3005 38.106 41.0992C38.106 39.8135 37.6187 39.0416 36.7533 38.5888C36.2678 38.3463 35.8925 38.1856 35.1442 37.9804ZM37.2343 37.6466C36.4734 37.2662 35.9352 37.0639 34.4097 36.706C34.2443 36.6672 34.0864 36.7931 34.0864 36.9629V45.4854C34.0864 45.6392 34.2176 45.7608 34.3707 45.7457C37.5816 45.4293 39.1637 43.9115 39.1637 41.0992C39.1637 39.4745 38.5037 38.3067 37.2343 37.6466Z" fill="black"/>
<mask id="mask0_259_6527" style="mask-type:luminance" maskUnits="userSpaceOnUse" x="13" y="5" width="39" height="55">
<path d="M51.5985 5.64844H13.1895V59.8151H51.5985V5.64844Z" fill="white"/>
<path fill-rule="evenodd" clip-rule="evenodd" d="M45.1923 29.8675L45.1951 29.8695C48.8917 32.4074 50.7823 36.0378 50.7823 40.6423C50.7823 44.9659 49.2153 48.58 46.3156 51.1508C43.5826 53.5736 39.7516 54.9955 35.1442 55.3069V57.9453C35.1442 58.6755 34.5522 59.2675 33.822 59.2675H30.8983C30.168 59.2675 29.5761 58.6755 29.5761 57.9453V55.1761C25.4576 54.8007 22.3891 53.8642 19.8401 52.1329C17.5575 50.6276 15.9539 48.5116 14.97 45.8879L14.9602 45.8617L14.9518 45.835C14.6388 44.8438 14.4302 43.9105 14.1873 42.2121C14.0866 41.5082 14.5613 40.8499 15.262 40.724L25.1883 38.9411C25.9574 38.803 26.657 39.354 26.7389 40.1032C26.9354 41.9032 27.2892 42.681 27.9589 43.4284C28.3976 43.8903 28.8855 44.2096 29.5761 44.4242V36.9826C26.0769 36.2324 23.8247 35.5255 21.7762 34.4765C17.4066 32.2632 14.852 28.0884 14.852 23.1255C14.852 17.5965 18.2316 12.8484 23.3958 10.8682C25.3809 10.084 27.4096 9.618 29.5761 9.47119V7.95502C29.5761 7.22479 30.168 6.63281 30.8983 6.63281H33.822C34.5522 6.63281 35.1442 7.22479 35.1442 7.95502V9.55495C38.0918 9.83251 40.421 10.5154 42.7495 11.7282L42.7511 11.7291C46.2985 13.5845 48.527 16.6769 49.5754 21.1399C49.7506 21.8858 49.2567 22.6154 48.5119 22.7425L38.649 24.4264C37.8987 24.5546 37.2259 24.0309 37.1152 23.3193C36.942 22.2051 36.6013 21.4749 36.159 20.9884C35.8962 20.6995 35.5662 20.4619 35.1442 20.2812V26.4156C40.4502 27.4569 42.8868 28.2957 45.1923 29.8675ZM22.2563 33.534C24.3005 34.5811 26.5896 35.2854 30.4215 36.0797C30.5444 36.1052 30.6339 36.2136 30.6339 36.3392V45.4188C30.6339 45.5783 30.4936 45.7018 30.336 45.677C28.9295 45.4556 27.9887 45.0005 27.1813 44.1456C26.3093 43.1767 25.8995 42.1615 25.6874 40.218C25.6705 40.0642 25.5276 39.9548 25.3754 39.9822L15.449 41.7651C15.3093 41.7902 15.2143 41.9218 15.2344 42.0623C15.4721 43.724 15.6702 44.5972 15.9605 45.5165C16.8743 47.9536 18.3468 49.8829 20.4285 51.2538C22.9205 52.9484 25.9996 53.8602 30.3864 54.1813C30.5251 54.1914 30.6339 54.3067 30.6339 54.4459V57.9453C30.6339 58.0913 30.7522 58.2097 30.8983 58.2097H33.822C33.9681 58.2097 34.0864 58.0913 34.0864 57.9453V54.5565C34.0864 54.4137 34.202 54.2967 34.3447 54.2909C43.8894 53.903 49.7246 48.7439 49.7246 40.6423C49.7246 36.3774 47.9982 33.077 44.5964 30.7415C42.3901 29.2372 40.0352 28.4262 34.3039 27.3304C34.1791 27.3065 34.0864 27.197 34.0864 27.07V19.2172C34.0864 19.056 34.2302 18.932 34.3886 18.9618C36.5553 19.3702 37.7724 20.6616 38.1605 23.1568C38.1836 23.3055 38.3228 23.4091 38.471 23.3838L48.3339 21.6999C48.4829 21.6745 48.5803 21.5288 48.5457 21.3818C47.5554 17.1664 45.4923 14.3566 42.2609 12.6664C39.8853 11.4291 37.5098 10.7707 34.3349 10.5501C34.1956 10.5405 34.0864 10.4249 34.0864 10.2852V7.95502C34.0864 7.80898 33.9681 7.69058 33.822 7.69058H30.8983C30.7522 7.69058 30.6339 7.80898 30.6339 7.95502V10.2241C30.6339 10.368 30.5187 10.4853 30.3749 10.49C28.0381 10.5669 25.8852 11.0215 23.7795 11.854C19.0068 13.6818 15.9097 18.0483 15.9097 23.1255C15.9097 27.6951 18.2452 31.5032 22.2563 33.534ZM28.5261 24.8517L28.5379 24.8588C28.7656 24.9954 29.0193 25.1156 29.5761 25.2888V20.0881C28.8708 20.2632 28.3599 20.5426 28.0103 20.8724C27.5488 21.3079 27.2743 21.9181 27.2743 22.7701C27.2743 23.6951 27.6662 24.3657 28.5142 24.8449L28.5261 24.8517ZM27.9937 25.7657C26.8258 25.1057 26.2166 24.0903 26.2166 22.7701C26.2166 20.5624 27.6862 19.1605 30.3507 18.8853C30.5034 18.8695 30.6339 18.9912 30.6339 19.1447V26.3383C30.6339 26.5112 30.4701 26.6375 30.3029 26.5933C28.9781 26.2431 28.464 26.048 27.9937 25.7657ZM35.1442 37.9804V44.5644C36.126 44.3666 36.7954 44.024 37.236 43.598C37.7745 43.0773 38.106 42.3005 38.106 41.0992C38.106 39.8135 37.6187 39.0416 36.7533 38.5888C36.2678 38.3463 35.8925 38.1856 35.1442 37.9804ZM37.2343 37.6466C36.4734 37.2662 35.9352 37.0639 34.4097 36.706C34.2443 36.6672 34.0864 36.7931 34.0864 36.9629V45.4854C34.0864 45.6392 34.2176 45.7608 34.3707 45.7457C37.5816 45.4293 39.1637 43.9115 39.1637 41.0992C39.1637 39.4745 38.5037 38.3067 37.2343 37.6466Z" fill="black"/>
</mask>
<g mask="url(#mask0_259_6527)">
<path fill-rule="evenodd" clip-rule="evenodd" d="M45.1923 29.8675L45.1951 29.8695C48.8917 32.4074 50.7823 36.0378 50.7823 40.6423C50.7823 44.9659 49.2153 48.58 46.3156 51.1508C43.5826 53.5736 39.7516 54.9955 35.1442 55.3069V57.9453C35.1442 58.6755 34.5522 59.2675 33.822 59.2675H30.8983C30.168 59.2675 29.5761 58.6755 29.5761 57.9453V55.1761C25.4576 54.8007 22.3891 53.8642 19.8401 52.1329C17.5575 50.6276 15.9539 48.5116 14.97 45.8879L14.9602 45.8617L14.9518 45.835C14.6388 44.8438 14.4302 43.9105 14.1873 42.2121C14.0866 41.5082 14.5613 40.8499 15.262 40.724L25.1883 38.9411C25.9574 38.803 26.657 39.354 26.7389 40.1032C26.9354 41.9032 27.2892 42.681 27.9589 43.4284C28.3976 43.8903 28.8855 44.2096 29.5761 44.4242V36.9826C26.0769 36.2324 23.8247 35.5255 21.7762 34.4765C17.4066 32.2632 14.852 28.0884 14.852 23.1255C14.852 17.5965 18.2316 12.8484 23.3958 10.8682C25.3809 10.084 27.4096 9.618 29.5761 9.47119V7.95502C29.5761 7.22479 30.168 6.63281 30.8983 6.63281H33.822C34.5522 6.63281 35.1442 7.22479 35.1442 7.95502V9.55495C38.0918 9.83251 40.421 10.5154 42.7495 11.7282L42.7511 11.7291C46.2985 13.5845 48.527 16.6769 49.5754 21.1399C49.7506 21.8858 49.2567 22.6154 48.5119 22.7425L38.649 24.4264C37.8987 24.5546 37.2259 24.0309 37.1152 23.3193C36.942 22.2051 36.6013 21.4749 36.159 20.9884C35.8962 20.6995 35.5662 20.4619 35.1442 20.2812V26.4156C40.4502 27.4569 42.8868 28.2957 45.1923 29.8675ZM22.2563 33.534C24.3005 34.5811 26.5896 35.2854 30.4215 36.0797C30.5444 36.1052 30.6339 36.2136 30.6339 36.3392V45.4188C30.6339 45.5783 30.4936 45.7018 30.336 45.677C28.9295 45.4556 27.9887 45.0005 27.1813 44.1456C26.3093 43.1767 25.8995 42.1615 25.6874 40.218C25.6705 40.0642 25.5276 39.9548 25.3754 39.9822L15.449 41.7651C15.3093 41.7902 15.2143 41.9218 15.2344 42.0623C15.4721 43.724 15.6702 44.5972 15.9605 45.5165C16.8743 47.9536 18.3468 49.8829 20.4285 51.2538C22.9205 52.9484 25.9996 53.8602 30.3864 54.1813C30.5251 54.1914 30.6339 54.3067 30.6339 54.4459V57.9453C30.6339 58.0913 30.7522 58.2097 30.8983 58.2097H33.822C33.9681 58.2097 34.0864 58.0913 34.0864 57.9453V54.5565C34.0864 54.4137 34.202 54.2967 34.3447 54.2909C43.8894 53.903 49.7246 48.7439 49.7246 40.6423C49.7246 36.3774 47.9982 33.077 44.5964 30.7415C42.3901 29.2372 40.0352 28.4262 34.3039 27.3304C34.1791 27.3065 34.0864 27.197 34.0864 27.07V19.2172C34.0864 19.056 34.2302 18.932 34.3886 18.9618C36.5553 19.3702 37.7724 20.6616 38.1605 23.1568C38.1836 23.3055 38.3228 23.4091 38.471 23.3838L48.3339 21.6999C48.4829 21.6745 48.5803 21.5288 48.5457 21.3818C47.5554 17.1664 45.4923 14.3566 42.2609 12.6664C39.8853 11.4291 37.5098 10.7707 34.3349 10.5501C34.1956 10.5405 34.0864 10.4249 34.0864 10.2852V7.95502C34.0864 7.80898 33.9681 7.69058 33.822 7.69058H30.8983C30.7522 7.69058 30.6339 7.80898 30.6339 7.95502V10.2241C30.6339 10.368 30.5187 10.4853 30.3749 10.49C28.0381 10.5669 25.8852 11.0215 23.7795 11.854C19.0068 13.6818 15.9097 18.0483 15.9097 23.1255C15.9097 27.6951 18.2452 31.5032 22.2563 33.534ZM28.5261 24.8517L28.5379 24.8588C28.7656 24.9954 29.0193 25.1156 29.5761 25.2888V20.0881C28.8708 20.2632 28.3599 20.5426 28.0103 20.8724C27.5488 21.3079 27.2743 21.9181 27.2743 22.7701C27.2743 23.6951 27.6662 24.3657 28.5142 24.8449L28.5261 24.8517ZM27.9937 25.7657C26.8258 25.1057 26.2166 24.0903 26.2166 22.7701C26.2166 20.5624 27.6862 19.1605 30.3507 18.8853C30.5034 18.8695 30.6339 18.9912 30.6339 19.1447V26.3383C30.6339 26.5112 30.4701 26.6375 30.3029 26.5933C28.9781 26.2431 28.464 26.048 27.9937 25.7657ZM35.1442 37.9804V44.5644C36.126 44.3666 36.7954 44.024 37.236 43.598C37.7745 43.0773 38.106 42.3005 38.106 41.0992C38.106 39.8135 37.6187 39.0416 36.7533 38.5888C36.2678 38.3463 35.8925 38.1856 35.1442 37.9804ZM37.2343 37.6466C36.4734 37.2662 35.9352 37.0639 34.4097 36.706C34.2443 36.6672 34.0864 36.7931 34.0864 36.9629V45.4854C34.0864 45.6392 34.2176 45.7608 34.3707 45.7457C37.5816 45.4293 39.1637 43.9115 39.1637 41.0992C39.1637 39.4745 38.5037 38.3067 37.2343 37.6466Z" stroke="black" stroke-width="0.261473"/>
</g>
</svg>
