<svg width="20" height="18" viewBox="0 0 20 18" fill="none" xmlns="http://www.w3.org/2000/svg">
<path id="Icon" d="M10 17C14.9706 17 19 13.4183 19 9C19 4.58172 14.9706 1 10 1M10 17C5.02944 17 1 13.4183 1 9C1 4.58172 5.02944 1 10 1M10 17C7.82538 17 6.0625 13.4183 6.0625 9C6.0625 4.58172 7.82538 1 10 1M10 17C12.1746 17 13.9375 13.4183 13.9375 9C13.9375 4.58172 12.1746 1 10 1M2.6875 12.8884C4.33632 12.0491 7.07573 11.5 10.1764 11.5C13.4124 11.5 16.255 12.0981 17.875 13M2.6875 5.11163C4.33632 5.95089 7.07573 6.5 10.1764 6.5C13.4124 6.5 16.255 5.90187 17.875 5" stroke="#100E0E"/>
</svg>
