<svg width="32" height="33" viewBox="0 0 32 33" fill="none" xmlns="http://www.w3.org/2000/svg">
<path d="M27 0.5H5C2.23858 0.5 0 2.73858 0 5.5V27.5C0 30.2614 2.23858 32.5 5 32.5H27C29.7614 32.5 32 30.2614 32 27.5V5.5C32 2.73858 29.7614 0.5 27 0.5Z" fill="#2867B2"/>
<path d="M11.6 24.5H8.2V13.8H11.6V24.5ZM9.9 12.3C8.8 12.3 8 11.5 8 10.4C8 9.3 8.9 8.5 9.9 8.5C11 8.5 11.8 9.3 11.8 10.4C11.8 11.5 11 12.3 9.9 12.3ZM24 24.5H20.6V18.7C20.6 17 19.9 16.5 18.9 16.5C17.9 16.5 16.9 17.3 16.9 18.8V24.5H13.5V13.8H16.7V15.3C17 14.6 18.2 13.5 19.9 13.5C21.8 13.5 23.8 14.6 23.8 17.9V24.5H24Z" fill="white"/>
</svg>
