<svg width="24" height="25" viewBox="0 0 24 25" fill="none" xmlns="http://www.w3.org/2000/svg">
<path d="M12.8711 6.52554C14.071 6.72664 15.1609 7.29336 16.0311 8.16172C16.9012 9.03009 17.4645 10.1178 17.6706 11.3153M13.0543 2.59961C15.1884 2.96067 17.1348 3.97071 18.6827 5.51092C20.2307 7.05569 21.2382 8.99809 21.6 11.1279M19.933 19.6013C19.933 19.6013 18.7743 20.7393 18.4903 21.0729C18.0278 21.5665 17.4828 21.7996 16.7684 21.7996C16.6997 21.7996 16.6264 21.7996 16.5577 21.795C15.1975 21.7082 13.9336 21.178 12.9856 20.7256C10.3934 19.4733 8.11734 17.6954 6.22592 15.4423C4.66424 13.5639 3.62007 11.8271 2.92854 9.96242C2.50263 8.82441 2.34692 7.93776 2.41561 7.10139C2.46141 6.56666 2.6675 6.12334 3.04761 5.744L4.60929 4.18551C4.83369 3.97528 5.07184 3.86102 5.3054 3.86102C5.59392 3.86102 5.82749 4.03469 5.97404 4.18094C5.97862 4.18551 5.9832 4.19009 5.98778 4.19466C6.26714 4.45516 6.53276 4.72482 6.81212 5.01275C6.95409 5.159 7.10064 5.30525 7.24719 5.45607L8.49745 6.70377C8.9829 7.18823 8.9829 7.63612 8.49745 8.12058C8.36464 8.25312 8.23641 8.38566 8.1036 8.51363C7.7189 8.90667 8.0211 8.60509 7.62267 8.96158C7.61351 8.97072 7.60435 8.97529 7.59977 8.98443C7.20592 9.37748 7.27919 9.76139 7.36163 10.0219C7.3662 10.0356 7.37078 10.0493 7.37536 10.063C7.70052 10.8491 8.15849 11.5895 8.85461 12.4716L8.85919 12.4762C10.1232 14.0301 11.4559 15.2412 12.926 16.169C13.1137 16.2878 13.3061 16.3838 13.4893 16.4752C13.6541 16.5575 13.8098 16.6352 13.9426 16.7174C13.961 16.7266 13.9793 16.7403 13.9976 16.7494C14.1533 16.8271 14.2999 16.8637 14.451 16.8637C14.8311 16.8637 15.0693 16.626 15.1471 16.5483L16.0448 15.6525C16.2005 15.4971 16.4478 15.3097 16.7363 15.3097C17.0203 15.3097 17.2538 15.488 17.3958 15.6434C17.4004 15.6479 17.4004 15.6479 17.405 15.6525L19.9284 18.1708C20.4001 18.6369 19.933 19.6013 19.933 19.6013Z" stroke="white" stroke-width="2" stroke-linecap="round" stroke-linejoin="round"/>
</svg>
