<svg width="66" height="66" viewBox="0 0 66 66" fill="none" xmlns="http://www.w3.org/2000/svg">
<path d="M40.5391 17.6406H10.9107C10.6342 17.6406 10.4102 17.8647 10.4102 18.1411V44.7497C10.4102 45.026 10.6342 45.2502 10.9107 45.2502H41.0396H58.6027C58.8792 45.2502 59.1032 45.026 59.1032 44.7496V34.4186C59.1032 34.3303 59.0798 34.2435 59.0355 34.1671L52.8726 23.5663C52.783 23.4121 52.6182 23.3174 52.4399 23.3174H41.5401C41.2638 23.3174 41.0396 23.0932 41.0396 22.8169V18.1411C41.0396 17.8647 40.8156 17.6406 40.5391 17.6406Z" fill="#E43B25"/>
<path d="M47.0557 32.7V22.1582H53.8426L60.1074 32.7H47.0557Z" fill="white"/>
<path d="M17.0789 43.7442H11.916V16.1348H42.5374V43.7442H27.5828" stroke="black" stroke-width="1.50597" stroke-linecap="round" stroke-linejoin="round"/>
<path d="M45.7271 43.7438H42.5381V22.1582H54.2315L60.6098 32.951V43.7438H56.1804" stroke="black" stroke-width="1.50597" stroke-linecap="round" stroke-linejoin="round"/>
<path d="M21.9559 49.7683C24.7284 49.7683 26.9758 47.5208 26.9758 44.7484C26.9758 41.976 24.7284 39.7285 21.9559 39.7285C19.1835 39.7285 16.936 41.976 16.936 44.7484C16.936 47.5208 19.1835 49.7683 21.9559 49.7683Z" fill="white" stroke="black" stroke-width="1.50597" stroke-linecap="round" stroke-linejoin="round"/>
<path d="M51.3221 49.7683C53.9559 49.7683 56.0911 47.5208 56.0911 44.7484C56.0911 41.976 53.9559 39.7285 51.3221 39.7285C48.6883 39.7285 46.5532 41.976 46.5532 44.7484C46.5532 47.5208 48.6883 49.7683 51.3221 49.7683Z" fill="white" stroke="black" stroke-width="1.50597" stroke-linecap="round" stroke-linejoin="round"/>
<path d="M59.6054 33.202H47.0557V22.1582" stroke="black" stroke-width="1.50597" stroke-linecap="round" stroke-linejoin="round"/>
<path d="M5.39062 23.6641H16.4344" stroke="black" stroke-width="1.50597" stroke-linecap="round" stroke-linejoin="round"/>
<path d="M7.39844 28.6855H16.4342" stroke="black" stroke-width="1.50597" stroke-linecap="round" stroke-linejoin="round"/>
</svg>
