<svg width="45" height="44" viewBox="0 0 45 44" fill="none" xmlns="http://www.w3.org/2000/svg">
<path d="M11.25 14.2996C11.25 14.0079 11.3685 13.7281 11.5795 13.5218C11.7905 13.3155 12.0766 13.1996 12.375 13.1996H28.125C28.4234 13.1996 28.7095 13.3155 28.9205 13.5218C29.1315 13.7281 29.25 14.0079 29.25 14.2996C29.25 14.5913 29.1315 14.8711 28.9205 15.0774C28.7095 15.2837 28.4234 15.3996 28.125 15.3996H12.375C12.0766 15.3996 11.7905 15.2837 11.5795 15.0774C11.3685 14.8711 11.25 14.5913 11.25 14.2996ZM23.625 19.7996C23.3266 19.7996 23.0405 19.9155 22.8295 20.1218C22.6185 20.3281 22.5 20.6079 22.5 20.8996C22.5 21.1913 22.6185 21.4711 22.8295 21.6774C23.0405 21.8837 23.3266 21.9996 23.625 21.9996H28.125C28.4234 21.9996 28.7095 21.8837 28.9205 21.6774C29.1315 21.4711 29.25 21.1913 29.25 20.8996C29.25 20.6079 29.1315 20.3281 28.9205 20.1218C28.7095 19.9155 28.4234 19.7996 28.125 19.7996H23.625ZM22.5 27.4996C22.5 27.2079 22.6185 26.9281 22.8295 26.7218C23.0405 26.5155 23.3266 26.3996 23.625 26.3996H28.125C28.4234 26.3996 28.7095 26.5155 28.9205 26.7218C29.1315 26.9281 29.25 27.2079 29.25 27.4996C29.25 27.7913 29.1315 28.0711 28.9205 28.2774C28.7095 28.4837 28.4234 28.5996 28.125 28.5996H23.625C23.3266 28.5996 23.0405 28.4837 22.8295 28.2774C22.6185 28.0711 22.5 27.7913 22.5 27.4996ZM12.375 19.7996C12.0766 19.7996 11.7905 19.9155 11.5795 20.1218C11.3685 20.3281 11.25 20.6079 11.25 20.8996V27.4996C11.25 27.7913 11.3685 28.0711 11.5795 28.2774C11.7905 28.4837 12.0766 28.5996 12.375 28.5996H19.125C19.4234 28.5996 19.7095 28.4837 19.9205 28.2774C20.1315 28.0711 20.25 27.7913 20.25 27.4996V20.8996C20.25 20.6079 20.1315 20.3281 19.9205 20.1218C19.7095 19.9155 19.4234 19.7996 19.125 19.7996H12.375ZM13.5 26.3996V21.9996H18V26.3996H13.5ZM4.5 10.9996C4.5 9.83266 4.97411 8.7135 5.81802 7.88834C6.66193 7.06318 7.80653 6.59961 9 6.59961H31.5C32.6935 6.59961 33.8381 7.06318 34.682 7.88834C35.5259 8.7135 36 9.83266 36 10.9996V13.1996C37.1935 13.1996 38.3381 13.6632 39.182 14.4883C40.0259 15.3135 40.5 16.4327 40.5 17.5996V29.6996C40.5 31.1583 39.9074 32.5572 38.8525 33.5887C37.7976 34.6201 36.3668 35.1996 34.875 35.1996H10.125C8.63316 35.1996 7.20242 34.6201 6.14752 33.5887C5.09263 32.5572 4.5 31.1583 4.5 29.6996V10.9996ZM33.75 10.9996C33.75 10.4161 33.5129 9.85655 33.091 9.44397C32.669 9.03139 32.0967 8.79961 31.5 8.79961H9C8.40326 8.79961 7.83097 9.03139 7.40901 9.44397C6.98705 9.85655 6.75 10.4161 6.75 10.9996V29.6996C6.75 30.5748 7.10558 31.4142 7.73851 32.0331C8.37145 32.6519 9.22989 32.9996 10.125 32.9996H34.875C35.7701 32.9996 36.6285 32.6519 37.2615 32.0331C37.8944 31.4142 38.25 30.5748 38.25 29.6996V17.5996C38.25 17.0161 38.0129 16.4566 37.591 16.044C37.169 15.6314 36.5967 15.3996 36 15.3996V29.6996C36 29.9913 35.8815 30.2711 35.6705 30.4774C35.4595 30.6837 35.1734 30.7996 34.875 30.7996C34.5766 30.7996 34.2905 30.6837 34.0795 30.4774C33.8685 30.2711 33.75 29.9913 33.75 29.6996V10.9996Z" fill="#E43B25"/>
</svg>
