<svg width="66" height="66" viewBox="0 0 66 66" fill="none" xmlns="http://www.w3.org/2000/svg">
<path d="M7.14746 11.1153C7.14746 10.838 7.37221 10.6133 7.64946 10.6133H56.8445C57.1217 10.6133 57.3466 10.838 57.3466 11.1153V42.5156H7.14746V11.1153Z" fill="#E43B25"/>
<path d="M7.14746 42.5156H57.3466V48.1702C57.3466 48.4475 57.1217 48.6722 56.8445 48.6722H7.64945C7.37221 48.6722 7.14746 48.4475 7.14746 48.1702V42.5156Z" fill="#E43B25"/>
<path d="M21.7051 54.2852C21.7051 54.0079 21.9298 53.7832 22.2071 53.7832H43.2907C43.5679 53.7832 43.7927 54.0079 43.7927 54.2852V56.7952C43.7927 57.0724 43.5679 57.2971 43.2907 57.2971H22.2071C21.9298 57.2971 21.7051 57.0724 21.7051 56.7952V54.2852Z" fill="#E43B25"/>
<path d="M27.7285 48.2617C27.7285 47.9845 27.9533 47.7598 28.2305 47.7598H37.2663C37.5435 47.7598 37.7683 47.9845 37.7683 48.2617V54.7875C37.7683 55.0648 37.5435 55.2896 37.2663 55.2896H28.2305C27.9533 55.2896 27.7285 55.0648 27.7285 54.7875V48.2617Z" fill="#E43B25"/>
<path d="M8.65332 10.1114C8.65332 9.27972 9.32757 8.60547 10.1593 8.60547H57.3464C58.1781 8.60547 58.8524 9.27972 58.8524 10.1114V42.2388H8.65332V10.1114Z" stroke="black" stroke-width="1.50597" stroke-linecap="round" stroke-linejoin="round"/>
<path d="M58.8533 41.7363H8.6543V46.2542H58.8533V41.7363Z" fill="white" stroke="black" stroke-width="1.50597" stroke-linecap="round" stroke-linejoin="round"/>
<path d="M44.7966 52.7793H22.709V55.7912H44.7966V52.7793Z" fill="white" stroke="black" stroke-width="1.50597" stroke-linecap="round" stroke-linejoin="round"/>
<path d="M38.2712 46.2539H29.2354V52.7798H38.2712V46.2539Z" fill="white" stroke="black" stroke-width="1.50597" stroke-linecap="round" stroke-linejoin="round"/>
<path d="M33.5019 17.3831C34.394 16.3137 35.9311 15.1309 38.3662 15.1309C42.513 15.1309 45.2987 18.9645 45.2987 22.5448C45.2987 24.031 44.4829 25.6615 43.2902 27.2512C42.8669 27.8153 42.3962 28.3743 41.8975 28.9198L39.4084 31.3675C38.8961 31.8274 38.3866 32.2632 37.8968 32.6679C36.079 34.1697 34.5325 35.2425 34.1233 35.5214C33.936 35.6487 33.7189 35.7125 33.5019 35.7125C33.2848 35.7125 33.0678 35.6487 32.8805 35.5214C31.7366 34.7421 21.7051 27.7568 21.7051 22.5448C21.7051 18.9645 24.4903 15.1309 28.6369 15.1309C31.073 15.1309 32.6098 16.3137 33.5019 17.3831Z" fill="white" stroke="black" stroke-width="1.50597" stroke-linecap="round" stroke-linejoin="round"/>
<path d="M39.2812 26.8164L39.9956 35.6314L42.588 32.5437L46.5581 31.8425L39.2812 26.8164Z" fill="white" stroke="black" stroke-width="1.50597" stroke-linecap="round" stroke-linejoin="round"/>
</svg>
