<svg width="43" height="42" viewBox="0 0 43 42" fill="none" xmlns="http://www.w3.org/2000/svg">
<path d="M24.9125 21L19.4 17.85V24.15L24.9125 21Z" fill="white"/>
<path fill-rule="evenodd" clip-rule="evenodd" d="M0.5 21C0.5 9.40202 9.90202 0 21.5 0C33.098 0 42.5 9.40202 42.5 21C42.5 32.598 33.098 42 21.5 42C9.90202 42 0.5 32.598 0.5 21ZM29.6375 14.0438C30.5563 14.3063 31.2125 14.9625 31.475 15.8813C32 17.5875 32 21 32 21C32 21 32 24.4125 31.6063 26.1188C31.3438 27.0375 30.6875 27.6938 29.7687 27.9563C28.0625 28.35 21.5 28.35 21.5 28.35C21.5 28.35 14.8062 28.35 13.2312 27.9563C12.3125 27.6938 11.6563 27.0375 11.3938 26.1188C11 24.4125 11 21 11 21C11 21 11 17.5875 11.2625 15.8813C11.525 14.9625 12.1813 14.3063 13.1 14.0438C14.8063 13.65 21.3687 13.65 21.3687 13.65C21.3687 13.65 28.0625 13.65 29.6375 14.0438Z" fill="white"/>
</svg>
